# xmcd CD database file
#
# Track frame offsets:
#	150
#	16645
#	27497
#	40337
#	59057
#	76870
#	87195
#	99525
#	117407
#	128095
#	146762
#	160455
#	171422
#
# Disc length: 2438 seconds
#
# Revision: 5
# Processed by: cddbd v1.5.2PL0 Copyright (c) Steve Scherf et al.
# Submitted via: CDex 1.70beta2
#
DISCID=ae09840d
DTITLE=Putumayo Presents - French Café
DYEAR=2003
DGENRE=Oldies
TTITLE0=Fibre de Verre
TTITLE1=Marilou Sous la Neige
TTITLE2=Si la Photo est Bonne
TTITLE3=Juste Quelqu'un de Bien
TTITLE4=Je M'Suis Fait Tout Petit
TTITLE5=Elaeudanla Téïtéïa
TTITLE6=La Mer Opale
TTITLE7=Ondulé
TTITLE8=Un Jour Comme un Autre
TTITLE9=On N'a Pas Besoin
TTITLE10=Mal ô Mains
TTITLE11=En Douce
TTITLE12=La Fée Clochette
EXTD=YEAR: 2003
EXTT0=
EXTT1=
EXTT2=
EXTT3=
EXTT4=
EXTT5=
EXTT6=
EXTT7=
EXTT8=
EXTT9=
EXTT10=
EXTT11=
EXTT12=
PLAYORDER=
